<svg id="logo-gl-utilities-light" xmlns="http://www.w3.org/2000/svg" xmlns:xlink="http://www.w3.org/1999/xlink" width="205.199" height="33" viewBox="0 0 320.199 33">
  <defs>
    <clipPath id="clip-path">
      <rect id="Rectangle_5274" data-name="Rectangle 5274" width="205.199" height="33" fill="none"/>
    </clipPath>
  </defs>
  <g id="Group_11326" data-name="Group 11326" transform="translate(0)">
    <g id="Group_11326-2" data-name="Group 11326" clip-path="url(#clip-path)">
      <path id="Path_15080" data-name="Path 15080" d="M17.364,10.06a8.541,8.541,0,0,1,6.682,3.277l6.427-5.661A14.755,14.755,0,0,0,24.705,3.4,19.969,19.969,0,0,0,16.854,1.93a18.575,18.575,0,0,0-8.726,2,14.7,14.7,0,0,0-5.98,5.64A16.055,16.055,0,0,0,0,17.891a15.97,15.97,0,0,0,2,8.192A13.314,13.314,0,0,0,7.425,31.3a16.263,16.263,0,0,0,7.64,1.787,12.009,12.009,0,0,0,8-2.511V32.4h6.554V16.7H20.9v7.15a7.536,7.536,0,0,1-4.426,1.277,6.073,6.073,0,0,1-4.576-1.83,7.624,7.624,0,0,1-1.766-5.49,7.96,7.96,0,0,1,1.936-5.7,6.95,6.95,0,0,1,5.3-2.043" transform="translate(0 -0.181)" fill="#09f"/>
      <path id="Path_15081" data-name="Path 15081" d="M59.669,24.706l-13.032-.02V2.681H36.591V32.474H59.669Z" transform="translate(-3.424 -0.251)" fill="#09f"/>
      <path id="Path_15082" data-name="Path 15082" d="M88.747,19.561c0,6.837-3.071,10.3-9.127,10.3-6.03,0-9.087-3.466-9.087-10.3V3.81a1.793,1.793,0,0,0-1.793-1.793h-.086A1.793,1.793,0,0,0,66.861,3.81V19.691c0,8.577,4.65,13.5,12.76,13.5,8.08,0,12.713-4.92,12.713-13.5V3.81a1.793,1.793,0,0,0-3.587,0Z" transform="translate(-6.257 -0.189)" fill="#412660"/>
      <path id="Path_15083" data-name="Path 15083" d="M114.587,31.742a7.535,7.535,0,0,1-4.981,1.668c-4.4,0-6.928-2.51-6.928-6.884V12.915H98.59V9.852h4.089v-5a3.543,3.543,0,0,1,3.543,3.542V9.852h6.961a3.063,3.063,0,0,1-3.064,3.063h-3.9V26.352c0,2.584,1.291,3.95,3.734,3.95a5.718,5.718,0,0,0,1.146-.114A3.2,3.2,0,0,1,114.587,31.742Z" transform="translate(-9.226 -0.454)" fill="#412660"/>
      <path id="Path_15084" data-name="Path 15084" d="M120.092,33.709h0a3.543,3.543,0,0,0,3.543-3.543V12.141a1.772,1.772,0,1,0-3.543,0Z" transform="translate(-11.238 -0.971)" fill="#412660"/>
      <path id="Path_15085" data-name="Path 15085" d="M121.814,0a2.449,2.449,0,0,0-2.489,2.4,2.47,2.47,0,0,0,2.489,2.446,2.425,2.425,0,1,0,0-4.848" transform="translate(-11.167 0)" fill="#412660"/>
      <path id="Path_15086" data-name="Path 15086" d="M131.085,32.739h0a3.543,3.543,0,0,0,3.543-3.543V1.771a1.772,1.772,0,0,0-3.543,0Z" transform="translate(-12.267 0)" fill="#412660"/>
      <path id="Path_15087" data-name="Path 15087" d="M142.076,33.709h0a3.543,3.543,0,0,0,3.543-3.543V12.141a1.772,1.772,0,1,0-3.543,0Z" transform="translate(-13.296 -0.971)" fill="#412660"/>
      <path id="Path_15088" data-name="Path 15088" d="M143.8,0a2.448,2.448,0,0,0-2.489,2.4A2.47,2.47,0,0,0,143.8,4.848,2.425,2.425,0,1,0,143.8,0" transform="translate(-13.224 0)" fill="#412660"/>
      <path id="Path_15089" data-name="Path 15089" d="M165.13,31.742a7.535,7.535,0,0,1-4.981,1.668c-4.4,0-6.928-2.51-6.928-6.884V12.915h-4.089V9.852h4.089v-5a3.543,3.543,0,0,1,3.543,3.542V9.852h6.961a3.063,3.063,0,0,1-3.064,3.063h-3.9V26.352c0,2.584,1.291,3.95,3.734,3.95a5.718,5.718,0,0,0,1.146-.114A3.2,3.2,0,0,1,165.13,31.742Z" transform="translate(-13.956 -0.454)" fill="#412660"/>
      <path id="Path_15090" data-name="Path 15090" d="M170.635,33.709h0a3.543,3.543,0,0,0,3.543-3.543V12.141a1.772,1.772,0,1,0-3.543,0Z" transform="translate(-15.968 -0.971)" fill="#412660"/>
      <path id="Path_15091" data-name="Path 15091" d="M172.357,0a2.448,2.448,0,0,0-2.489,2.4,2.47,2.47,0,0,0,2.489,2.446,2.425,2.425,0,1,0,0-4.848" transform="translate(-15.896 0)" fill="#412660"/>
      <path id="Path_15092" data-name="Path 15092" d="M200.326,30.086a3.282,3.282,0,0,0-4.11-.6,9.331,9.331,0,0,1-4.809,1.233c-4.829,0-8.319-3.007-8.761-7.51h19.125v-.227c0-.181.013-.362.024-.531s.019-.3.019-.426c0-6.974-4.656-11.844-11.322-11.844-6.611,0-11.409,4.982-11.409,11.844,0,7,5.032,11.889,12.236,11.889A11.451,11.451,0,0,0,200.326,30.086Zm-1.946-9.641H182.65a7.9,7.9,0,0,1,15.73,0" transform="translate(-16.759 -0.953)" fill="#412660"/>
      <path id="Path_15093" data-name="Path 15093" d="M205.282,31.026a3.345,3.345,0,0,1,4.138-1.384,14.751,14.751,0,0,0,5.539,1.116c3.92,0,5.908-1.183,5.908-3.515,0-2.481-2.816-2.983-6.079-3.565-4.1-.732-8.758-1.562-8.758-6.747,0-4.1,3.642-6.754,9.278-6.754a15.634,15.634,0,0,1,8.22,2.173,3.517,3.517,0,0,1-4.218,1.555,12.681,12.681,0,0,0-4-.62c-3.645,0-5.736,1.3-5.736,3.559,0,2.629,2.9,3.16,6.259,3.773,4.021.735,8.579,1.569,8.579,6.538,0,4.166-3.7,6.755-9.668,6.755C211.089,33.91,207.287,32.75,205.282,31.026Z" transform="translate(-19.21 -0.953)" fill="#412660"/>
    </g>
  </g>
</svg>
