<svg xmlns="http://www.w3.org/2000/svg" width="178" height="19" viewBox="0 0 178 19"><defs><style>.a{fill:#09f;}.b{fill:#412660;}</style></defs><g transform="translate(-249.936 -292.256)"><g transform="translate(249.936 292.837)"><path class="a" d="M260.232,298.047a5.069,5.069,0,0,1,3.962,1.938L268,296.638a8.751,8.751,0,0,0-3.42-2.529,11.877,11.877,0,0,0-4.656-.868,11.039,11.039,0,0,0-5.173,1.183,8.706,8.706,0,0,0-3.546,3.334,10.306,10.306,0,0,0-.088,9.763,7.884,7.884,0,0,0,3.218,3.082,9.66,9.66,0,0,0,4.53,1.057,7.134,7.134,0,0,0,4.744-1.484v1.082H267.5v-9.285h-5.173V306.2a4.479,4.479,0,0,1-2.624.755,3.607,3.607,0,0,1-2.713-1.082,4.5,4.5,0,0,1-1.047-3.246,4.7,4.7,0,0,1,1.148-3.372A4.129,4.129,0,0,1,260.232,298.047Z" transform="translate(-249.936 -293.241)"/><path class="a" d="M298.8,306.946l-7.728-.012V293.926h-5.956v17.612H298.8Z" transform="translate(-264.375 -293.522)"/></g><g transform="translate(288.347 292.256)"><path class="b" d="M315.087,309.353h0a1.356,1.356,0,0,1,1.907-.538,9.264,9.264,0,0,0,4.627,1.239c3.293,0,4.726-1.378,4.726-3.107,0-4.811-10.833-1.855-10.833-8.345,0-2.581,2.01-4.812,6.485-4.812a9.959,9.959,0,0,1,5.455,1.554h0a1.479,1.479,0,0,1-1.952.772,8.963,8.963,0,0,0-3.5-.747c-3.217,0-4.65,1.428-4.65,3.182,0,4.812,10.833,1.9,10.833,8.294,0,2.582-2.061,4.787-6.561,4.787A9.558,9.558,0,0,1,315.087,309.353Z" transform="translate(-315.087 -292.886)"/><path class="b" d="M364.277,306.95v5.881a1.785,1.785,0,0,1-1.785,1.785h0v-7.49c0-2.79-1.408-4.222-3.8-4.222-2.714,0-4.424,1.759-4.424,4.775v6.045a.892.892,0,0,1-.892.892h0a.892.892,0,0,1-.892-.892v-6.6c0-2.79-1.408-4.222-3.821-4.222-2.689,0-4.423,1.759-4.423,4.775v5.153a1.784,1.784,0,0,1-1.785,1.785h0V302.574h.476a1.234,1.234,0,0,1,1.233,1.234h0a5.345,5.345,0,0,1,4.851-2.514,4.749,4.749,0,0,1,4.7,2.79,5.756,5.756,0,0,1,5.228-2.79C362.166,301.294,364.277,303.154,364.277,306.95Z" transform="translate(-326.322 -296.019)"/><path class="b" d="M395.841,306.44v8.176h0a1.709,1.709,0,0,1-1.709-1.709v-.353a4.965,4.965,0,0,1-4.55,2.187c-2.991,0-4.826-1.559-4.826-3.846,0-2.036,1.307-3.745,5.1-3.745h4.2v-.8c0-2.262-1.282-3.494-3.745-3.494a7.082,7.082,0,0,0-3.284.795,1.465,1.465,0,0,1-1.919-.568h0a8.525,8.525,0,0,1,5.823-1.775A5.141,5.141,0,0,1,395.841,306.44Zm-1.785,4.2v-2.161H389.91c-2.564,0-3.394,1.005-3.394,2.362,0,1.533,1.232,2.489,3.343,2.489A4.23,4.23,0,0,0,394.057,310.645Z" transform="translate(-343.682 -296.019)"/><path class="b" d="M417.385,301.294v1.734c-.151,0-.3-.025-.427-.025-2.765,0-4.449,1.759-4.449,4.876v4.952a1.784,1.784,0,0,1-1.785,1.785h0V301.395h0a1.709,1.709,0,0,1,1.709,1.71v.879C413.262,302.224,414.946,301.294,417.385,301.294Z" transform="translate(-354.34 -296.019)"/><path class="b" d="M432.922,311.819a4.261,4.261,0,0,1-2.79.927,3.5,3.5,0,0,1-3.871-3.833v-7.966H423.9v-1.5h2.363v-2.881h0a1.781,1.781,0,0,1,1.785,1.778v1.1h4.021a1.505,1.505,0,0,1-1.508,1.5h-2.513v7.866a2.113,2.113,0,0,0,2.287,2.4,3.413,3.413,0,0,0,.919-.124,1.388,1.388,0,0,1,1.65.686Z" transform="translate(-359.747 -294.023)"/><path class="b" d="M456.293,311.587l-4.021-5.638a12.608,12.608,0,0,1-1.408.075h-4.725v2.534a1.857,1.857,0,0,1-1.86,1.854h0V294.046h6.585c4.474,0,7.189,2.255,7.189,6.015a5.44,5.44,0,0,1-4.022,5.513l4.3,6.014Zm-.1-11.527c0-2.807-1.86-4.411-5.379-4.411h-4.675v8.8h4.675C454.333,304.446,456.193,302.817,456.193,300.061Z" transform="translate(-368.112 -292.991)"/><path class="b" d="M483.985,308.559h-11.06a4.894,4.894,0,0,0,5.2,4.6,5.488,5.488,0,0,0,3.033-.85,1.508,1.508,0,0,1,1.982.229l.037.042a6.99,6.99,0,0,1-12.04-4.575,6.368,6.368,0,0,1,6.46-6.711c3.72,0,6.409,2.74,6.409,6.711C484.01,308.156,483.985,308.357,483.985,308.559Zm-11.06-1.332H482.3a4.7,4.7,0,0,0-9.375,0Z" transform="translate(-379.137 -296.019)"/><path class="b" d="M503.615,311.819a4.261,4.261,0,0,1-2.79.927,3.5,3.5,0,0,1-3.87-3.833v-7.966h-2.363v-1.5h2.363v-2.881h0a1.781,1.781,0,0,1,1.784,1.778v1.1h4.021a1.505,1.505,0,0,1-1.507,1.5h-2.514v7.866a2.113,2.113,0,0,0,2.288,2.4,3.407,3.407,0,0,0,.919-.124,1.388,1.388,0,0,1,1.65.686Z" transform="translate(-388.763 -294.023)"/><path class="b" d="M523.54,306.44v8.176h0a1.709,1.709,0,0,1-1.709-1.709v-.353a4.963,4.963,0,0,1-4.549,2.187c-2.991,0-4.826-1.559-4.826-3.846,0-2.036,1.307-3.745,5.1-3.745h4.2v-.8c0-2.262-1.282-3.494-3.745-3.494a7.084,7.084,0,0,0-3.284.795,1.466,1.466,0,0,1-1.919-.568h0a8.525,8.525,0,0,1,5.823-1.775A5.141,5.141,0,0,1,523.54,306.44Zm-1.784,4.2v-2.161h-4.148c-2.563,0-3.393,1.005-3.393,2.362,0,1.533,1.232,2.489,3.343,2.489A4.23,4.23,0,0,0,521.756,310.645Z" transform="translate(-396.095 -296.019)"/><path class="b" d="M537.74,293.509a1.287,1.287,0,0,1,1.308-1.253,1.266,1.266,0,0,1,1.307,1.228,1.308,1.308,0,0,1-2.615.025Zm.4,4.16h1.785v11.4a1.782,1.782,0,0,1-1.785,1.78h0Z" transform="translate(-406.472 -292.256)"/><path class="b" d="M549.719,292.256h0a.891.891,0,0,1,.893.89v15.927a1.782,1.782,0,0,1-1.785,1.78h0V293.146A.891.891,0,0,1,549.719,292.256Z" transform="translate(-411.022 -292.256)"/></g></g></svg>